<svg width="32" height="34" viewBox="0 0 32 34" fill="none" xmlns="http://www.w3.org/2000/svg">
<ellipse cx="16" cy="16.6914" rx="16" ry="16.5" fill="#FCF7EC"/>
<g clip-path="url(#clip0_3417_5092)">
<path d="M21.6875 9.19141H10.3125C9.59062 9.19141 9 9.82422 9 10.5977V22.7852C9 23.5586 9.59062 24.1914 10.3125 24.1914H21.6875C22.4094 24.1914 23 23.5586 23 22.7852V10.5977C23 9.82422 22.4094 9.19141 21.6875 9.19141ZM18.625 11.5352C18.625 11.2773 18.8219 11.0664 19.0625 11.0664H20.8125C21.0531 11.0664 21.25 11.2773 21.25 11.5352V13.4102C21.25 13.668 21.0531 13.8789 20.8125 13.8789H19.0625C18.9465 13.8787 18.8354 13.8292 18.7534 13.7413C18.6714 13.6535 18.6252 13.5344 18.625 13.4102V11.5352ZM16 13.8789C16.6845 13.8978 17.3349 14.2025 17.8128 14.7278C18.2907 15.2532 18.5581 15.9578 18.5581 16.6914C18.5581 17.425 18.2907 18.1296 17.8128 18.655C17.3349 19.1803 16.6845 19.485 16 19.5039C15.3155 19.485 14.6651 19.1803 14.1872 18.655C13.7093 18.1296 13.4419 17.425 13.4419 16.6914C13.4419 15.9578 13.7093 15.2532 14.1872 14.7278C14.6651 14.2025 15.3155 13.8978 16 13.8789ZM21.25 21.8477C21.25 22.1055 21.0531 22.3164 20.8125 22.3164H11.1875C11.0715 22.3162 10.9604 22.2667 10.8784 22.1788C10.7964 22.091 10.7502 21.9719 10.75 21.8477V15.7539H11.7125C11.5826 16.4351 11.5957 17.1386 11.751 17.8137C11.9062 18.4887 12.1997 19.1183 12.6101 19.6568C13.0206 20.1952 13.5377 20.6291 14.124 20.927C14.7103 21.2248 15.3511 21.3792 16 21.3789C16.6489 21.3792 17.2897 21.2248 17.876 20.927C18.4623 20.6291 18.9794 20.1952 19.3899 19.6568C19.8003 19.1183 20.0938 18.4887 20.249 17.8137C20.4043 17.1386 20.4174 16.4351 20.2875 15.7539H21.25V21.8477Z" fill="#2D2D2D"/>
</g>
<defs>
<clipPath id="clip0_3417_5092">
<rect width="14" height="15" fill="white" transform="translate(9 9.19141)"/>
</clipPath>
</defs>
</svg>
