<svg width="107" height="107" viewBox="0 0 107 107" fill="none" xmlns="http://www.w3.org/2000/svg">
<g filter="url(#filter0_d_2701_22368)">
<path d="M93.9283 48.5C93.9283 71.1593 75.6848 89.5 53.2151 89.5C30.7454 89.5 12.502 71.1593 12.502 48.5C12.502 25.8407 30.7454 7.5 53.2151 7.5C75.6848 7.5 93.9283 25.8407 93.9283 48.5Z" stroke="#747DD6" stroke-width="5"/>
<path d="M46.188 32.4434C46.335 32.3447 46.5078 32.292 46.6845 32.292C46.8612 32.292 47.034 32.3447 47.181 32.4434L52.5487 36.0456C52.6712 36.1279 52.7716 36.2393 52.841 36.37C52.9105 36.5007 52.9468 36.6467 52.9468 36.7949V43.9993C52.9468 44.2381 52.8525 44.4672 52.6848 44.6361C52.517 44.805 52.2894 44.8998 52.0522 44.8998H48.4737V38.596H44.8953V44.8998H41.3168C41.0795 44.8998 40.852 44.805 40.6842 44.6361C40.5165 44.4672 40.4222 44.2381 40.4222 43.9993V36.7949C40.4222 36.6467 40.4585 36.5007 40.5279 36.37C40.5974 36.2393 40.6978 36.1279 40.8203 36.0456L46.188 32.4434ZM61.4492 37.8143C61.5843 37.7366 61.7373 37.6957 61.8929 37.6957C62.0485 37.6957 62.2015 37.7366 62.3366 37.8143L68.5989 41.4165C68.7358 41.4952 68.8497 41.609 68.9288 41.7463C69.008 41.8835 69.0498 42.0394 69.0498 42.1982V51.2037C69.0498 51.4425 68.9556 51.6716 68.7878 51.8405C68.62 52.0094 68.3925 52.1042 68.1552 52.1042H63.6821V44.8998H60.1037V52.1042H55.6306C55.3933 52.1042 55.1658 52.0094 54.998 51.8405C54.8303 51.6716 54.736 51.4425 54.736 51.2037V42.1982C54.7361 42.0394 54.7778 41.8835 54.857 41.7463C54.9361 41.609 55.05 41.4952 55.1869 41.4165L61.4492 37.8143ZM37.3385 52.1997L44.4954 48.5975C44.6195 48.535 44.7565 48.5025 44.8953 48.5025C45.0341 48.5025 45.171 48.535 45.2952 48.5975L52.4521 52.1997C52.6006 52.2744 52.7256 52.3893 52.813 52.5315C52.9004 52.6737 52.9467 52.8376 52.9468 53.0048V63.8114C52.9468 64.0502 52.8525 64.2793 52.6848 64.4482C52.517 64.6171 52.2894 64.7119 52.0522 64.7119H46.6845V56.607H43.106V64.7119H37.7384C37.5011 64.7119 37.2735 64.6171 37.1058 64.4482C36.938 64.2793 36.8438 64.0502 36.8438 63.8114V53.0048C36.8438 52.8376 36.8902 52.6737 36.9775 52.5315C37.0649 52.3893 37.1899 52.2744 37.3385 52.1997Z" fill="#747DD6"/>
</g>
<defs>
<filter id="filter0_d_2701_22368" x="0.00195312" y="0" width="106.426" height="107" filterUnits="userSpaceOnUse" color-interpolation-filters="sRGB">
<feFlood flood-opacity="0" result="BackgroundImageFix"/>
<feColorMatrix in="SourceAlpha" type="matrix" values="0 0 0 0 0 0 0 0 0 0 0 0 0 0 0 0 0 0 127 0" result="hardAlpha"/>
<feOffset dy="5"/>
<feGaussianBlur stdDeviation="5"/>
<feComposite in2="hardAlpha" operator="out"/>
<feColorMatrix type="matrix" values="0 0 0 0 0 0 0 0 0 0 0 0 0 0 0 0 0 0 0.17 0"/>
<feBlend mode="normal" in2="BackgroundImageFix" result="effect1_dropShadow_2701_22368"/>
<feBlend mode="normal" in="SourceGraphic" in2="effect1_dropShadow_2701_22368" result="shape"/>
</filter>
</defs>
</svg>
