<svg width="87" height="87" viewBox="0 0 87 87" fill="none" xmlns="http://www.w3.org/2000/svg">
<circle cx="43.5" cy="43.5" r="41" stroke="#747DD6" stroke-width="5"/>
<g clip-path="url(#clip0_2701_22388)">
<path d="M43.4993 32.7497C45.4784 32.7497 47.0827 31.1454 47.0827 29.1663C47.0827 27.1873 45.4784 25.583 43.4993 25.583C41.5203 25.583 39.916 27.1873 39.916 29.1663C39.916 31.1454 41.5203 32.7497 43.4993 32.7497Z" fill="#747DD6"/>
<path d="M50.4689 36.5301C49.7702 35.8313 48.5698 34.5413 46.2406 34.5413C45.8643 34.5413 43.6964 34.5413 41.6898 34.5413C36.7627 34.5234 32.7493 30.5101 32.7493 25.583H29.166C29.166 31.2447 32.9464 36.0463 38.1243 37.6051V61.4163H41.7077V50.6663H45.291V61.4163H48.8743V40.0059L55.9514 47.083L58.4777 44.5568L50.4689 36.5301Z" fill="#747DD6"/>
</g>
<defs>
<clipPath id="clip0_2701_22388">
<rect width="43" height="43" fill="white" transform="translate(22 22)"/>
</clipPath>
</defs>
</svg>
