<svg width="313" height="521" viewBox="0 0 313 521" fill="none" xmlns="http://www.w3.org/2000/svg">
<g clip-path="url(#clip0_1353_7494)" filter="url(#filter0_d_1353_7494)">

<path d="M240.554 116.869L240.645 117.218L240.736 117.799L240.767 118.358L240.736 118.497L240.645 118.823L240.584 119.032L240.371 119.102L240.037 119.055L239.399 119.195L239.095 119.335L238.973 119.567L239.064 119.73L239.733 120.451L239.855 121.103L239.551 121.568L239.186 122.01L238.973 122.615L239.095 123.219V123.568L238.943 123.731L238.608 124.243L238.517 124.336L238.243 124.499L238.152 124.569L238 124.848L237.939 125.476L237.787 125.732L237.544 125.895L236.967 126.174L236.693 126.36L236.48 126.779L236.875 127.127L237.423 127.453L237.848 127.849L237.939 128.453L237.818 129.058L236.906 131.175L236.723 131.384L236.359 131.477L235.659 131.594L235.325 131.71L235.082 131.85L234.656 132.222L234.565 132.501L234.747 132.78L235.234 133.199L235.355 133.618L235.416 134.199L235.386 134.827L235.234 135.362L234.899 135.781L234.808 136.06L234.96 136.363L236.024 137.433L236.176 137.828L236.085 138.247L235.143 139.317L234.747 139.945L234.595 140.084L234.291 140.713L234.261 141.317L234.413 143.039L234.687 143.969L234.899 145.388L235.051 145.667L235.447 146.179L235.538 146.389L235.477 146.668L235.264 147.203L235.203 147.505L235.355 148.133L235.416 148.482L235.264 148.622L234.687 149.017L234.535 149.064L234.17 149.11H233.957L231.799 148.831L231.251 149.017L231.099 149.203L231.069 149.343L231.343 149.436V149.529L231.251 149.831L231.221 150.134L231.069 150.739L231.039 151.018L231.282 151.622L231.373 151.925L231.221 152.064L230.947 152.181L230.643 152.437L230.218 152.925L229.914 153.437L229.701 154.042L229.549 154.67L229.488 155.228L229.579 155.856L229.549 155.996L229.397 156.275L229.275 157.322V157.624L229.397 158.182L229.671 158.648L230.491 159.555L230.613 159.788L230.704 160.067L230.765 160.695L230.947 161.462L230.917 161.625L230.826 161.788V161.858L230.035 161.997L228.637 162.439H227.907L227.299 162.207L225.749 161.09L225.445 160.997L224.715 160.881L224.411 160.741L223.591 160.183L222.496 159.671L222.223 159.508L221.919 159.369L221.523 159.322L219.943 159.346L219.791 159.299L219.669 159.113L219.365 158.88H219.274L219.031 158.973L218.879 158.927L218.635 158.764L218.575 158.624V158.275L218.544 158.089L218.423 157.88L218.331 157.857L218.179 157.88L217.967 157.927L217.906 157.95L217.754 158.089H216.447L215.687 157.787L215.109 157.275L214.471 156.926L213.62 157.136L213.224 157.229L212.647 157.136L210.64 156.298L210.428 156.135L209.85 155.437L209.576 155.228L209.333 155.089L208.604 154.809L208.239 154.74L207.996 154.67L205.381 153.274L203.436 151.646L202.706 151.343L202.25 151.134L201.885 150.901L201.824 150.808L201.642 150.552L201.368 150.32L201.216 150.204L200.882 150.087L200.608 149.994L199.636 149.482L198.784 148.622L198.693 148.505L198.328 147.575L198.237 147.459L197.964 147.272L197.72 146.947L196.9 145.644L196.687 145.132L196.565 144.597L196.444 143.341L196.322 143.062L196.17 142.829L195.623 142.155L195.501 141.945L195.471 141.69L195.532 141.41L195.988 140.55L196.079 140.247L196.109 139.968L196.048 139.131V138.852L196.14 138.572L196.444 137.758L196.504 137.479V137.177L196.383 136.363L196.413 136.107L196.535 135.851L197.052 135.176L197.112 134.92L197.052 134.618L196.869 134.362L196.444 133.897L196.261 133.571L196.2 133.245L196.231 132.896L196.383 132.571L196.808 132.129L196.93 131.943L196.96 131.803L197.052 131.361L197.204 130.966L197.264 130.756L197.234 130.57L197.295 130.524L197.234 130.407V130.291L197.264 130.152L197.325 130.058L197.447 129.989L197.568 129.942L197.964 129.849L198.268 129.826L198.602 129.849H199.636L199.97 129.803L200.304 129.733L200.578 129.617L200.882 129.477L201.399 129.151L201.824 128.756L202.584 127.872L203.01 127.523L203.192 127.29L203.314 127.174L203.527 127.011L203.74 126.941L203.8 126.895L203.952 126.662L204.044 126.592L204.287 126.499L204.5 126.43L204.682 126.313L204.986 125.918L205.594 125.313L205.685 125.127L205.746 125.104L206.232 123.964L206.384 123.778L206.992 123.359L207.175 123.173L208.087 121.87L208.999 120.87L209.607 119.986L210.306 119.265L210.64 118.823L211.461 118.009L212.343 116.706L212.464 116.45L212.525 115.682L212.586 115.427L212.89 114.775L212.951 114.519V113.752L213.042 113.24V113.007L213.012 112.798L212.586 112.17L212.464 111.937L212.343 111.309L213.589 111.263L213.772 111.239L214.744 110.96H214.957L215.352 111.077H215.474L216.507 110.89L217.298 110.984L218.727 111.402L219.882 110.89L220.216 110.704L220.307 110.565L220.915 110.146L221.736 109.727L222.101 109.588L222.344 109.518L222.831 109.565L223.682 109.774L224.138 109.82H224.29L225.567 109.611L225.84 109.541L226.114 109.425L228.059 108.82L228.485 108.797L228.698 108.82L228.911 108.867L229.063 108.936L229.427 109.146L229.701 109.239L230.005 109.262L230.704 109.239L233.683 109.867L234.139 110.169L234.291 110.309L234.474 110.681L234.687 111.03L235.021 111.356L235.903 112.03L236.602 112.449L236.784 112.705L236.845 112.891L236.967 113.496L237.088 113.798L237.696 114.729L237.848 114.915L239.611 116.334L240.432 116.822L240.554 116.869Z" fill="#EDEDED" stroke="#9E9E9E" stroke-width="1.49126" stroke-linecap="round" stroke-linejoin="round"/>
<path d="M212.344 111.311L212.466 111.939L212.587 112.172L213.013 112.8L213.043 113.009V113.242L212.952 113.754V114.521L212.891 114.777L212.587 115.429L212.526 115.685L212.466 116.452L212.344 116.708L211.462 118.011L210.642 118.825L210.307 119.267L209.608 119.988L209 120.872L208.088 121.872L207.176 123.175L206.994 123.361L206.386 123.78L206.234 123.966L205.747 125.106L205.686 125.129L205.595 125.315L204.987 125.92L204.683 126.315L204.501 126.432L204.288 126.501L204.045 126.594L203.954 126.664L203.802 126.897L203.741 126.943L203.528 127.013L203.315 127.176L203.194 127.292L203.011 127.525L202.586 127.874L201.826 128.758L201.4 129.153L200.883 129.479L200.579 129.619L200.306 129.735L199.971 129.805L199.637 129.851H198.603L198.269 129.828L197.965 129.851L197.57 129.944L197.448 129.991L197.326 130.061L197.266 130.154L197.235 130.293V130.409L197.296 130.526L197.235 130.572L197.266 130.758L197.205 130.968L197.053 131.363L196.962 131.805L196.931 131.945L196.81 132.131L196.384 132.573L196.232 132.899L196.202 133.247L196.262 133.573L196.445 133.899L196.87 134.364L197.053 134.62L197.114 134.922L197.053 135.178L196.536 135.853L196.414 136.109L196.384 136.365L196.506 137.179V137.481L196.445 137.76L196.141 138.574L196.05 138.854V139.133L196.11 139.97L196.08 140.249L195.989 140.552L195.533 141.412L195.472 141.692L195.502 141.947L195.624 142.157L196.171 142.831L196.323 143.064L196.445 143.343L196.566 144.599L196.688 145.134L196.901 145.646L197.722 146.949L197.965 147.275L198.238 147.461L198.33 147.577L198.694 148.507L198.786 148.624L199.637 149.484L200.61 149.996L200.883 150.089L201.218 150.206L201.37 150.322L201.643 150.554L201.826 150.81L201.886 150.903L202.251 151.136L202.707 151.345L202.981 151.648L203.011 151.834L202.95 152.043L202.829 152.229L202.646 152.369L202.525 152.415L202.221 152.485L202.069 152.555L201.978 152.695L201.917 152.881L201.886 153.113L201.917 153.416L201.826 153.602L201.643 153.741L201.005 154.114L200.883 154.276L200.792 154.928L200.701 155.277L200.64 155.416L200.093 156.323L199.941 156.463L199.576 156.626L198.938 156.742L198.573 156.719L198.299 156.649L198.086 156.533L197.661 156.184L197.053 155.858L196.87 155.812L195.411 155.788L195.229 155.742L194.742 155.533L194.621 155.486L194.378 155.463H194.104L193.891 155.486L193.526 155.556L193.314 155.649L193.07 155.858L192.918 156.184L193.07 156.626L192.523 157.231L189.787 159.627L186.17 162.744L181.154 167.071H180.363L172.338 167.117L163.734 167.14L169.875 159.464L174.526 153.625L177.962 149.368L178.387 148.949L178.722 148.973L178.904 148.949L179.086 148.903L179.299 148.787L179.542 148.647L180.09 148.205L180.302 147.879L180.363 147.786L180.394 147.53L180.424 147.181V146.344L180.485 146.065L180.698 145.716L180.789 145.507L180.819 145.39L180.758 145.181L180.667 144.972L180.546 144.832L180.15 144.576L180.029 144.437L179.755 143.971L179.33 143.343L179.208 143.25L179.026 143.204L178.57 143.134L178.357 143.041V142.925L178.57 142.715L178.722 142.506L178.752 142.32L178.782 142.041L178.691 141.878L178.509 141.808L178.326 141.622L178.296 141.552L178.266 141.087L178.174 140.668L178.053 140.342L177.779 140.063L177.597 139.924L176.502 139.296L176.168 138.83L176.046 138.621L175.621 137.458L175.56 137.318L175.499 137.272L175.195 137.109L174.739 136.946L174.618 136.876L174.131 136.434L173.827 136.225L173.402 135.876L173.462 134.759L173.523 134.411L173.614 134.178L173.736 133.969L173.918 133.573V133.364L173.736 133.131L173.554 132.899L173.462 132.689L173.341 131.875V131.689L173.432 131.061V130.805L173.371 130.665L173.128 130.363V130.27L173.158 130.13L173.341 129.944L173.979 129.525L174.618 129.037L174.891 128.595L178.782 117.429L178.904 116.638L178.205 115.847L174.83 112.94L174.739 112.707L174.709 112.381L175.408 108.869L176.746 102.262L177.475 98.7497L178.782 92.2828L180.242 84.8389L181.154 80.1167L195.837 80.1632L206.568 80.1167H213.317H224.474L224.291 80.6983L224.018 81.0472L223.622 81.3729L223.166 81.6055L222.68 81.6985H222.072L221.768 81.7218L221.494 81.8381L221.312 81.9777L221.19 82.187L221.069 82.4429L221.038 82.6523V82.9082L221.16 83.3734V83.6293L221.038 84.3737L221.069 84.6296L221.373 85.2111L221.403 85.4205L221.038 87.1419L221.099 88.1654V88.4213L221.008 88.6772L220.917 88.9098L220.339 89.7705L220.248 90.0031V90.2357L220.278 90.4684V90.5847L220.126 91.0499L220.096 91.3756L219.974 91.6082L219.64 92.0734L219.518 92.3293H219.458L219.488 93.2133L219.397 93.6785L219.154 94.0275L218.941 94.1438L218.242 94.4462L217.786 94.7253L217.39 95.0277L216.965 95.2836L215.475 95.7256L215.019 95.9117L214.624 96.1443L214.29 96.47L214.077 96.8422L213.53 98.424L213.438 98.866L213.408 101.588L212.861 103.425L212.77 103.611L212.283 104.333L212.162 104.705L212.283 105.124L212.83 105.821L213.286 106.938L213.347 107.426L213.317 107.682L213.256 107.915L212.8 108.566L212.709 108.799L212.648 109.055L212.618 109.567L212.557 109.799L212.253 110.497L212.222 110.73L212.344 111.311Z" fill="#EDEDED" stroke="#9E9E9E" stroke-width="1.49126" stroke-linecap="round" stroke-linejoin="round"/>
<path d="M273.845 82.0232L273.784 81.9767L272.568 81.3254L272.112 80.9765L271.899 80.7904L271.777 80.6508L271.686 80.4879L271.656 80.3716L271.625 80.1157L271.534 79.9529L271.413 79.7436L271.261 79.5807L270.774 79.2085L270.653 79.0457L270.561 78.8829L270.349 77.301L270.257 76.859L270.014 76.3705L267.825 72.9045L267.795 72.7649V72.4625L267.886 72.1368L268.099 71.6949L268.19 71.5785L268.616 71.3227L269.072 71.2761H269.406L269.71 71.3692L269.953 71.6018L270.197 72.0903L270.318 72.2299L270.501 72.3229L270.896 72.3927L271.838 72.7882L272.385 72.4392L272.933 71.9507L273.358 71.6949L273.753 71.6483L274.057 71.5088L274.301 71.2761L274.453 70.9737L274.483 70.7876L274.422 70.6015L274.635 70.3456L274.665 70.2061L274.635 70.0665L274.574 69.9037L274.209 69.3686V69.1593L274.605 69.0895L274.878 68.9964L274.939 68.7638L275.03 68.4847L275.182 68.2753L275.486 68.2521L275.912 68.2753L276.277 68.2521L276.459 68.0427L276.489 67.4379L276.581 67.182L276.763 66.9261L277.006 66.7168L277.28 66.5772L277.584 66.5074L278.313 66.4376L279.043 66.1119H279.408L279.742 66.2283L280.016 66.3446L280.259 66.3911L280.867 66.4144L281.201 66.3678L281.445 66.205L281.505 65.9258L281.293 65.4141L281.414 65.2047L282.387 64.4371L282.691 64.344L283.451 64.2975L283.694 64.2044L283.907 63.9951L284.059 63.809L284.181 63.5764L284.363 62.9716L284.545 62.7157L284.789 62.5296L285.153 62.4598H285.822L285.944 62.5063L286.096 62.6226L286.248 62.5528L286.461 62.3435L286.582 62.0411L286.643 61.7387L286.673 61.4363L286.613 61.1804L286.521 60.9943V60.8314L286.673 60.5756L286.886 60.3662L287.312 60.1103L287.798 59.6916L287.92 59.5055L287.981 59.2961L288.133 58.5052L288.193 58.3656L288.437 57.9469V57.3654L288.406 57.1095L288.437 57.0164L288.558 56.8536L288.741 56.6675L288.832 56.5047L288.771 56.3418L288.497 56.086L288.437 55.8999L288.741 55.0624L288.771 54.76L288.589 54.3413L288.528 53.9691L288.467 53.8295V53.69L288.558 53.5504L288.68 53.5039L289.045 53.4806L289.166 53.4573L289.318 53.2712L289.288 53.0154L289.166 52.4338L289.257 52.2244L289.409 52.0151L289.561 51.7825L289.592 51.5033L289.501 51.3405L289.136 51.0148L289.075 50.852L289.045 50.5961L288.741 49.9215L288.771 49.5726L288.893 49.4562L289.44 49.4795L289.653 49.3632L289.622 49.0841L289.379 48.6886L289.409 48.456L290.017 48.3862L290.23 48.456L290.321 48.5955L290.352 48.7816L290.443 48.9212L290.747 48.8514L291.081 48.9677L291.355 49.1073L291.537 49.3167L291.598 49.5958V49.7121L291.629 49.8517L291.72 49.9215L291.872 49.875L291.963 49.7587L291.872 49.5028V49.3632L291.963 49.2469L292.267 49.1306L292.389 49.0375L292.419 48.898V48.6421L292.51 48.5258L292.662 48.4792H292.784L293.057 48.5723L293.209 48.549L293.483 48.2931L293.635 48.2001L294 48.1536L294.213 48.2234L294.365 48.3629L294.547 48.6421L294.638 48.7584L294.729 48.6886L294.821 48.4792H295.064L295.337 48.549L295.641 48.5258L295.581 48.2931L295.277 47.8977L295.398 47.8512L295.55 47.8744L295.824 47.9442L296.037 47.9209L296.189 47.8512L296.584 47.5022L296.766 47.4092L296.918 47.5022L296.827 47.7348L296.705 47.9442L296.614 48.1536L296.675 48.4095L296.766 48.5258L296.888 48.6421L297.04 48.7351H297.192L297.253 48.6653L297.192 48.2466L297.283 48.1303L297.435 48.2001L297.709 48.3862L297.891 48.3629L298.073 48.2931L298.286 48.3164L298.59 48.456L298.773 48.6421L298.864 48.8747L298.894 49.1306L299.046 49.4562L299.32 49.433L299.928 49.1538L300.11 49.2934L300.262 49.5726L300.414 50.0378L300.384 50.1541L300.293 50.3635L300.323 50.5263L300.414 50.6659L300.718 50.8752L300.84 51.0148L300.961 51.2474L301.022 51.4801L300.961 52.2477L301.144 52.9223L301.113 53.0619L301.053 53.2945L301.083 53.4573L301.205 53.5969L301.691 53.9691L302.117 54.318L302.299 54.7135L302.39 55.1322L302.603 55.5975L303.333 56.3884L303.606 56.8071L303.697 57.3189L303.515 57.7608L302.877 58.4587L302.755 58.8309L302.907 60.0638V60.4592L302.694 60.5988L302.573 60.6919L302.542 60.7849L302.573 60.9012L302.694 61.1338L302.664 61.3199L302.481 61.7619L302.451 61.9945L302.542 62.5063L302.512 62.7389L302.421 62.9716L302.299 63.0413L302.025 63.1111L301.995 63.2507L302.056 63.4135L302.177 63.4833L302.39 63.5764V63.6927L302.299 63.8788V64.0184L302.603 64.0649L302.785 64.5534L302.937 65.321L302.907 65.7397L302.725 66.205L302.056 67.2983L301.995 67.3681L301.904 67.4146L301.661 67.4379L301.569 67.4844L301.509 67.6705L301.539 68.0427L301.509 68.2055L301.448 68.2986L301.205 68.4149L301.144 68.4847L301.174 68.5777L301.296 68.694V68.8103L301.144 69.0197L300.961 69.1128L300.84 69.043L300.718 68.8103L300.536 68.6243L300.323 68.5545L300.201 68.6475L300.08 69.043L299.928 69.1825L299.685 69.1593L299.472 69.0197L299.289 68.9034L299.077 68.9964L299.046 69.1593L299.137 69.3454V69.485L298.833 69.5315L298.712 69.5082L298.59 69.4384H298.469L298.377 69.5082L298.256 69.7641L297.161 70.7178L296.584 70.7644L296.128 70.6481L296.158 70.3456L296.037 70.2526L295.854 70.1596L295.672 70.3922L295.216 71.2994L295.064 71.4622L295.003 71.5785L295.064 71.8577L295.003 71.974L294.912 71.9973L294.729 72.0205L294.577 72.067L294.456 72.2997L294.365 72.4392L294.182 72.6021H293.878L293.635 72.4858L293.453 72.2997L293.24 72.1368L293.27 72.5556L293.24 72.6951L293.149 72.8347L292.997 72.9277H292.875L292.845 72.8114L292.784 72.509L292.632 72.3695L292.389 72.3229L291.781 72.3462L291.537 72.3927L291.477 72.5323L291.72 72.8114V72.9975L291.416 73.1371L290.413 73.3697H290.261L290.109 73.2999L290.048 73.2302L289.896 72.9975L289.865 72.951L289.653 72.9045H289.561L289.44 72.9975L289.318 73.1138L289.257 73.2534L289.166 73.486L289.014 73.7419L288.801 73.8815H288.619L288.558 73.6256L288.497 73.5791H288.406L288.285 73.6489L288.254 73.8117L288.224 74.0909L288.163 74.1374L288.041 74.2072L287.889 74.2304L287.555 74.2072H287.403L286.765 74.37L286.673 74.3467L286.552 74.2304L286.461 74.1839L286.582 73.9745L286.491 73.835L286.278 73.8815L286.065 73.9978L285.944 74.1141L285.853 74.3933L285.792 74.7189L285.67 74.9981L285.366 75.1144H285.001L284.88 75.1609L284.91 75.6494L284.819 76.231L284.728 76.5101L284.637 76.6497L284.333 76.7427L283.542 77.2778L283.177 77.3243L282.904 77.2545L282.63 77.1615L282.326 77.0917L282.083 77.1847L282.235 77.3941L282.691 77.743L282.934 77.9989L282.873 78.1385H282.63L282.296 77.9989L282.144 78.0454H281.809L281.657 78.0919L281.627 78.185L281.505 78.5339L281.201 78.4874L280.867 78.2548L280.624 78.185L280.32 78.278L280.077 78.4874L279.894 78.72L279.347 79.0457L279.195 79.0922L279.043 79.069L278.739 78.9759L278.526 78.9992L278.283 79.162L278.253 79.4179L278.161 79.6272L277.857 79.7203H277.705L277.584 79.7668L277.523 79.8366L277.493 79.9529L277.523 80.2321L277.371 80.4414L276.702 81.0462L276.611 81.1625L276.246 81.2323L276.094 81.2556L275.973 81.2091L275.912 81.1393L275.821 81.0928L275.608 81.1625L275.547 81.2323L275.395 81.5347L275.03 81.7674L274.969 81.8604L274.939 81.9535L274.878 82.0465L274.726 82.0698L274.544 82.0232L274.513 81.9069V81.7906L274.453 81.7208L274.118 81.6511L273.936 81.8371L273.845 82.0232Z" fill="#EDEDED" stroke="#9E9E9E" stroke-width="1.49126" stroke-linecap="round" stroke-linejoin="round"/>
<path d="M232.835 171.023L232.744 171.232L232.409 171.488L231.862 171.558L231.467 171.86L230.889 172.698L229.4 171.79L229.096 170.976L229.43 169.767L230.433 169.115L230.768 169.278L231.041 169.394L231.345 169.58L231.862 169.836L232.105 170.022L232.379 170.325L232.592 170.674L232.835 171.023Z" fill="#EDEDED" stroke="#9E9E9E" stroke-width="1.49126" stroke-linecap="round" stroke-linejoin="round"/>
</g>
<defs>
<filter id="filter0_d_1353_7494" x="0" y="0" width="312.202" height="520.202" filterUnits="userSpaceOnUse" color-interpolation-filters="sRGB">
<feFlood flood-opacity="0" result="BackgroundImageFix"/>
<feColorMatrix in="SourceAlpha" type="matrix" values="0 0 0 0 0 0 0 0 0 0 0 0 0 0 0 0 0 0 127 0" result="hardAlpha"/>
<feOffset dx="8.20192" dy="8.20192"/>
<feColorMatrix type="matrix" values="0 0 0 0 0.616667 0 0 0 0 0.616667 0 0 0 0 0.616667 0 0 0 1 0"/>
<feBlend mode="normal" in2="BackgroundImageFix" result="effect1_dropShadow_1353_7494"/>
<feBlend mode="normal" in="SourceGraphic" in2="effect1_dropShadow_1353_7494" result="shape"/>
</filter>
<clipPath id="clip0_1353_7494">
<rect width="304" height="512" fill="white"/>
</clipPath>
</defs>
</svg>
