<svg width="87" height="87" viewBox="0 0 87 87" fill="none" xmlns="http://www.w3.org/2000/svg">
<circle cx="43.5" cy="43.5" r="41" stroke="#747DD6" stroke-width="5"/>
<g clip-path="url(#clip0_2701_22395)">
<path d="M46.8743 43.5003C50.8339 43.5003 54.041 40.2932 54.041 36.3337C54.041 32.3741 50.8339 29.167 46.8743 29.167C42.9148 29.167 39.7077 32.3741 39.7077 36.3337C39.7077 40.2932 42.9148 43.5003 46.8743 43.5003ZM46.8743 32.7503C48.8452 32.7503 50.4577 34.3628 50.4577 36.3337C50.4577 38.3045 48.8452 39.917 46.8743 39.917C44.9035 39.917 43.291 38.3045 43.291 36.3337C43.291 34.3628 44.9035 32.7503 46.8743 32.7503ZM46.8743 47.0837C42.0906 47.0837 32.541 49.4845 32.541 54.2503V57.8337H61.2077V54.2503C61.2077 49.4845 51.6581 47.0837 46.8743 47.0837ZM36.1243 54.2503C36.5185 52.9603 42.0548 50.667 46.8743 50.667C51.7119 50.667 57.266 52.9782 57.6244 54.2503H36.1243ZM30.7493 48.8753V43.5003H36.1243V39.917H30.7493V34.542H27.166V39.917H21.791V43.5003H27.166V48.8753H30.7493Z" fill="#747DD6"/>
</g>
<defs>
<clipPath id="clip0_2701_22395">
<rect width="43" height="43" fill="white" transform="translate(20 22)"/>
</clipPath>
</defs>
</svg>
