<svg width="70" height="70" viewBox="0 0 70 70" fill="none" xmlns="http://www.w3.org/2000/svg">
<g filter="url(#filter0_d_2701_22413)">
<g filter="url(#filter1_d_2701_22413)">
<circle cx="35" cy="34" r="31" fill="#439373"/>
<path d="M48.607 18.9344C46.8374 17.1559 44.7297 15.7458 42.4067 14.7863C40.0837 13.8268 37.592 13.3371 35.0768 13.3458C24.5384 13.3458 15.9493 21.8919 15.9493 32.3776C15.9493 35.7384 16.8372 39.0032 18.4971 41.8839L15.7949 51.7551L25.9281 49.1049C28.7267 50.622 31.8728 51.4286 35.0768 51.4286C45.6153 51.4286 54.2043 42.8826 54.2043 32.3968C54.2043 27.3076 52.2163 22.5256 48.607 18.9344ZM35.0768 48.2023C32.2203 48.2023 29.4216 47.4341 26.9703 45.9937L26.3913 45.648L20.3693 47.2228L21.9713 41.3846L21.5853 40.7893C19.9982 38.2676 19.1555 35.3529 19.1533 32.3776C19.1533 23.6587 26.2948 16.553 35.0575 16.553C39.3038 16.553 43.2991 18.2046 46.2908 21.2005C47.7722 22.6677 48.9461 24.4128 49.7446 26.3347C50.5431 28.2567 50.9502 30.3172 50.9424 32.3968C50.981 41.1157 43.8396 48.2023 35.0768 48.2023ZM43.801 36.3722C43.3184 36.1417 40.9637 34.9895 40.5391 34.8166C40.0951 34.663 39.7863 34.5862 39.4582 35.0471C39.1301 35.5272 38.2229 36.6026 37.9527 36.9099C37.6825 37.2364 37.393 37.2748 36.9104 37.0252C36.4279 36.7947 34.8838 36.2762 33.0695 34.663C31.6412 33.3955 30.6955 31.8399 30.4059 31.3598C30.1357 30.8797 30.3673 30.63 30.6183 30.3803C30.8306 30.1691 31.1008 29.8234 31.3324 29.5545C31.564 29.2857 31.6605 29.0744 31.8149 28.7671C31.9693 28.4407 31.8921 28.1718 31.7763 27.9414C31.6605 27.7109 30.6955 25.3679 30.3094 24.4077C29.9234 23.4859 29.5181 23.6011 29.2286 23.5819H28.3021C27.974 23.5819 27.4722 23.6971 27.0282 24.1772C26.6036 24.6574 25.3683 25.8096 25.3683 28.1526C25.3683 30.4956 27.0861 32.7617 27.3177 33.069C27.5494 33.3955 30.6955 38.1966 35.4822 40.2515C36.6209 40.7509 37.5088 41.0389 38.2036 41.2502C39.3424 41.6151 40.3847 41.5574 41.2146 41.4422C42.1411 41.3078 44.0519 40.2899 44.4379 39.1761C44.8432 38.0622 44.8432 37.1212 44.7081 36.9099C44.573 36.6987 44.2835 36.6026 43.801 36.3722Z" fill="#F8F8F8"/>
</g>
</g>
<defs>
<filter id="filter0_d_2701_22413" x="0" y="0" width="70" height="70" filterUnits="userSpaceOnUse" color-interpolation-filters="sRGB">
<feFlood flood-opacity="0" result="BackgroundImageFix"/>
<feColorMatrix in="SourceAlpha" type="matrix" values="0 0 0 0 0 0 0 0 0 0 0 0 0 0 0 0 0 0 127 0" result="hardAlpha"/>
<feOffset dy="1"/>
<feGaussianBlur stdDeviation="2"/>
<feComposite in2="hardAlpha" operator="out"/>
<feColorMatrix type="matrix" values="0 0 0 0 0 0 0 0 0 0 0 0 0 0 0 0 0 0 0.25 0"/>
<feBlend mode="normal" in2="BackgroundImageFix" result="effect1_dropShadow_2701_22413"/>
<feBlend mode="normal" in="SourceGraphic" in2="effect1_dropShadow_2701_22413" result="shape"/>
</filter>
<filter id="filter1_d_2701_22413" x="0" y="0" width="70" height="70" filterUnits="userSpaceOnUse" color-interpolation-filters="sRGB">
<feFlood flood-opacity="0" result="BackgroundImageFix"/>
<feColorMatrix in="SourceAlpha" type="matrix" values="0 0 0 0 0 0 0 0 0 0 0 0 0 0 0 0 0 0 127 0" result="hardAlpha"/>
<feOffset dy="1"/>
<feGaussianBlur stdDeviation="2"/>
<feComposite in2="hardAlpha" operator="out"/>
<feColorMatrix type="matrix" values="0 0 0 0 0 0 0 0 0 0 0 0 0 0 0 0 0 0 0.25 0"/>
<feBlend mode="normal" in2="BackgroundImageFix" result="effect1_dropShadow_2701_22413"/>
<feBlend mode="normal" in="SourceGraphic" in2="effect1_dropShadow_2701_22413" result="shape"/>
</filter>
</defs>
</svg>
